<svg xmlns="http://www.w3.org/2000/svg" xmlns:xlink="http://www.w3.org/1999/xlink" width="500" zoomAndPan="magnify" viewBox="0 0 375 374.999991" height="500" preserveAspectRatio="xMidYMid meet" version="1.0"><defs><clipPath id="be788005a7"><path d="M 13.675781 13.675781 L 361.675781 13.675781 L 361.675781 361.675781 L 13.675781 361.675781 Z M 13.675781 13.675781 " clip-rule="nonzero"/></clipPath></defs><g clip-path="url(#be788005a7)"><path fill="#000000" d="M 42.90625 361.675781 L 332.445312 361.675781 C 333.402344 361.675781 334.355469 361.628906 335.308594 361.53125 C 336.261719 361.4375 337.207031 361.296875 338.144531 361.109375 C 339.082031 360.921875 340.011719 360.6875 340.925781 360.410156 C 341.84375 360.132812 342.742188 359.808594 343.625 359.441406 C 344.511719 359.078125 345.375 358.667969 346.21875 358.214844 C 347.0625 357.765625 347.882812 357.273438 348.675781 356.742188 C 349.472656 356.207031 350.242188 355.640625 350.980469 355.03125 C 351.71875 354.425781 352.429688 353.78125 353.105469 353.105469 C 353.78125 352.429688 354.425781 351.71875 355.03125 350.980469 C 355.640625 350.242188 356.207031 349.472656 356.742188 348.675781 C 357.273438 347.882812 357.765625 347.0625 358.214844 346.21875 C 358.667969 345.375 359.078125 344.511719 359.441406 343.625 C 359.808594 342.742188 360.132812 341.84375 360.410156 340.925781 C 360.6875 340.011719 360.921875 339.082031 361.109375 338.144531 C 361.296875 337.207031 361.4375 336.261719 361.53125 335.308594 C 361.628906 334.355469 361.675781 333.402344 361.675781 332.445312 L 361.675781 42.90625 C 361.675781 41.949219 361.628906 40.996094 361.53125 40.042969 C 361.4375 39.089844 361.296875 38.144531 361.109375 37.207031 C 360.921875 36.269531 360.6875 35.339844 360.410156 34.425781 C 360.132812 33.511719 359.808594 32.609375 359.441406 31.726562 C 359.078125 30.839844 358.667969 29.976562 358.214844 29.132812 C 357.765625 28.289062 357.273438 27.46875 356.742188 26.675781 C 356.207031 25.878906 355.640625 25.109375 355.03125 24.371094 C 354.425781 23.632812 353.78125 22.921875 353.105469 22.246094 C 352.429688 21.570312 351.71875 20.925781 350.980469 20.320312 C 350.242188 19.710938 349.472656 19.144531 348.675781 18.609375 C 347.882812 18.078125 347.0625 17.585938 346.21875 17.136719 C 345.375 16.683594 344.511719 16.277344 343.625 15.910156 C 342.742188 15.542969 341.84375 15.21875 340.925781 14.941406 C 340.011719 14.664062 339.082031 14.429688 338.144531 14.242188 C 337.207031 14.054688 336.261719 13.914062 335.308594 13.820312 C 334.355469 13.726562 333.402344 13.675781 332.445312 13.675781 L 42.90625 13.675781 C 41.949219 13.675781 40.996094 13.726562 40.042969 13.820312 C 39.089844 13.914062 38.144531 14.054688 37.207031 14.242188 C 36.269531 14.429688 35.339844 14.664062 34.425781 14.941406 C 33.511719 15.21875 32.609375 15.542969 31.726562 15.910156 C 30.839844 16.277344 29.976562 16.683594 29.132812 17.136719 C 28.289062 17.585938 27.46875 18.078125 26.675781 18.609375 C 25.878906 19.144531 25.109375 19.710938 24.371094 20.320312 C 23.632812 20.925781 22.921875 21.570312 22.246094 22.246094 C 21.570312 22.921875 20.925781 23.632812 20.320312 24.371094 C 19.710938 25.109375 19.144531 25.878906 18.609375 26.675781 C 18.078125 27.46875 17.585938 28.289062 17.136719 29.132812 C 16.683594 29.976562 16.277344 30.839844 15.910156 31.726562 C 15.542969 32.609375 15.21875 33.511719 14.941406 34.425781 C 14.664062 35.339844 14.429688 36.269531 14.242188 37.207031 C 14.054688 38.144531 13.914062 39.089844 13.820312 40.042969 C 13.726562 40.996094 13.675781 41.949219 13.675781 42.90625 L 13.675781 332.445312 C 13.675781 333.402344 13.726562 334.355469 13.820312 335.308594 C 13.914062 336.261719 14.054688 337.207031 14.242188 338.144531 C 14.429688 339.082031 14.664062 340.011719 14.941406 340.925781 C 15.21875 341.84375 15.542969 342.742188 15.910156 343.625 C 16.277344 344.511719 16.683594 345.375 17.136719 346.21875 C 17.585938 347.0625 18.078125 347.882812 18.609375 348.675781 C 19.144531 349.472656 19.710938 350.242188 20.320312 350.980469 C 20.925781 351.71875 21.570312 352.429688 22.246094 353.105469 C 22.921875 353.78125 23.632812 354.425781 24.371094 355.03125 C 25.109375 355.640625 25.878906 356.207031 26.675781 356.742188 C 27.46875 357.273438 28.289062 357.765625 29.132812 358.214844 C 29.976562 358.667969 30.839844 359.078125 31.726562 359.441406 C 32.609375 359.808594 33.511719 360.132812 34.425781 360.410156 C 35.339844 360.6875 36.269531 360.921875 37.207031 361.109375 C 38.144531 361.296875 39.089844 361.4375 40.042969 361.53125 C 40.996094 361.628906 41.949219 361.675781 42.90625 361.675781 Z M 28.175781 42.90625 C 28.175781 41.941406 28.273438 40.984375 28.460938 40.035156 C 28.652344 39.085938 28.929688 38.164062 29.300781 37.273438 C 29.671875 36.378906 30.125 35.53125 30.664062 34.726562 C 31.199219 33.921875 31.8125 33.179688 32.496094 32.496094 C 33.179688 31.8125 33.921875 31.199219 34.726562 30.664062 C 35.53125 30.125 36.378906 29.671875 37.273438 29.300781 C 38.164062 28.929688 39.085938 28.652344 40.035156 28.460938 C 40.984375 28.273438 41.941406 28.175781 42.90625 28.175781 L 332.445312 28.175781 C 333.410156 28.175781 334.367188 28.273438 335.316406 28.460938 C 336.265625 28.652344 337.1875 28.929688 338.078125 29.300781 C 338.972656 29.671875 339.820312 30.125 340.625 30.664062 C 341.429688 31.199219 342.171875 31.8125 342.855469 32.496094 C 343.539062 33.179688 344.152344 33.921875 344.6875 34.726562 C 345.226562 35.53125 345.679688 36.378906 346.050781 37.273438 C 346.421875 38.164062 346.699219 39.085938 346.890625 40.035156 C 347.078125 40.984375 347.175781 41.941406 347.175781 42.90625 L 347.175781 332.445312 C 347.175781 333.410156 347.078125 334.367188 346.890625 335.316406 C 346.699219 336.265625 346.421875 337.1875 346.050781 338.078125 C 345.679688 338.972656 345.226562 339.820312 344.6875 340.625 C 344.152344 341.429688 343.539062 342.171875 342.855469 342.855469 C 342.171875 343.539062 341.429688 344.152344 340.625 344.6875 C 339.820312 345.226562 338.972656 345.679688 338.078125 346.050781 C 337.1875 346.421875 336.265625 346.699219 335.316406 346.890625 C 334.367188 347.078125 333.410156 347.175781 332.445312 347.175781 L 42.90625 347.175781 C 41.941406 347.175781 40.984375 347.078125 40.035156 346.890625 C 39.085938 346.699219 38.164062 346.421875 37.273438 346.050781 C 36.378906 345.679688 35.53125 345.226562 34.726562 344.6875 C 33.921875 344.152344 33.179688 343.539062 32.496094 342.855469 C 31.8125 342.171875 31.199219 341.429688 30.664062 340.625 C 30.125 339.820312 29.671875 338.972656 29.300781 338.078125 C 28.929688 337.1875 28.652344 336.265625 28.460938 335.316406 C 28.273438 334.367188 28.175781 333.410156 28.175781 332.445312 Z M 28.175781 42.90625 " fill-opacity="1" fill-rule="nonzero"/></g><path fill="#000000" d="M 187.675781 267.425781 C 190.832031 267.371094 193.984375 267.207031 197.128906 266.941406 C 200.273438 266.671875 203.410156 266.296875 206.527344 265.816406 C 209.648438 265.335938 212.75 264.753906 215.832031 264.0625 C 218.914062 263.375 221.964844 262.582031 224.992188 261.683594 C 228.023438 260.789062 231.015625 259.792969 233.976562 258.695312 C 236.9375 257.597656 239.855469 256.402344 242.734375 255.105469 C 245.613281 253.808594 248.445312 252.417969 251.230469 250.933594 C 254.019531 249.445312 256.75 247.867188 259.429688 246.199219 C 262.109375 244.527344 264.726562 242.769531 267.289062 240.921875 C 269.847656 239.074219 272.34375 237.140625 274.773438 235.125 C 277.203125 233.109375 279.558594 231.011719 281.847656 228.835938 C 284.136719 226.660156 286.347656 224.410156 288.484375 222.085938 C 290.621094 219.761719 292.675781 217.367188 294.648438 214.902344 C 296.625 212.441406 298.515625 209.914062 300.316406 207.320312 C 302.121094 204.730469 303.835938 202.082031 305.460938 199.375 C 307.085938 196.667969 308.617188 193.910156 310.054688 191.097656 C 310.339844 190.574219 310.558594 190.019531 310.707031 189.441406 C 310.851562 188.863281 310.925781 188.273438 310.925781 187.675781 C 310.925781 187.078125 310.851562 186.488281 310.707031 185.910156 C 310.558594 185.332031 310.339844 184.777344 310.054688 184.253906 C 308.617188 181.445312 307.085938 178.683594 305.460938 175.976562 C 303.835938 173.269531 302.121094 170.621094 300.316406 168.03125 C 298.515625 165.4375 296.625 162.910156 294.652344 160.449219 C 292.675781 157.984375 290.621094 155.589844 288.484375 153.265625 C 286.347656 150.941406 284.136719 148.691406 281.847656 146.515625 C 279.558594 144.339844 277.203125 142.242188 274.773438 140.226562 C 272.34375 138.210938 269.847656 136.28125 267.289062 134.433594 C 264.726562 132.585938 262.109375 130.824219 259.429688 129.152344 C 256.75 127.484375 254.019531 125.90625 251.230469 124.417969 C 248.445312 122.933594 245.613281 121.542969 242.734375 120.246094 C 239.855469 118.953125 236.9375 117.753906 233.976562 116.65625 C 231.015625 115.558594 228.023438 114.5625 224.992188 113.667969 C 221.964844 112.769531 218.914062 111.976562 215.832031 111.289062 C 212.75 110.597656 209.648438 110.015625 206.527344 109.535156 C 203.410156 109.054688 200.277344 108.679688 197.128906 108.410156 C 193.984375 108.144531 190.832031 107.980469 187.675781 107.925781 C 184.519531 107.980469 181.367188 108.144531 178.222656 108.410156 C 175.078125 108.679688 171.941406 109.054688 168.824219 109.535156 C 165.703125 110.015625 162.601562 110.597656 159.519531 111.289062 C 156.4375 111.976562 153.386719 112.769531 150.359375 113.667969 C 147.332031 114.5625 144.335938 115.558594 141.375 116.65625 C 138.417969 117.753906 135.496094 118.953125 132.617188 120.246094 C 129.738281 121.542969 126.90625 122.933594 124.121094 124.417969 C 121.335938 125.90625 118.601562 127.484375 115.921875 129.152344 C 113.246094 130.824219 110.625 132.585938 108.066406 134.433594 C 105.503906 136.28125 103.007812 138.210938 100.578125 140.226562 C 98.152344 142.242188 95.792969 144.339844 93.503906 146.515625 C 91.214844 148.691406 89.003906 150.941406 86.867188 153.265625 C 84.730469 155.589844 82.675781 157.984375 80.703125 160.449219 C 78.726562 162.910156 76.835938 165.4375 75.035156 168.03125 C 73.230469 170.621094 71.515625 173.269531 69.890625 175.976562 C 68.265625 178.683594 66.734375 181.445312 65.296875 184.253906 C 65.011719 184.777344 64.792969 185.332031 64.648438 185.910156 C 64.5 186.488281 64.425781 187.078125 64.425781 187.675781 C 64.425781 188.273438 64.5 188.863281 64.648438 189.441406 C 64.792969 190.019531 65.011719 190.574219 65.296875 191.097656 C 66.734375 193.910156 68.265625 196.667969 69.890625 199.375 C 71.515625 202.082031 73.230469 204.730469 75.035156 207.320312 C 76.835938 209.914062 78.726562 212.441406 80.703125 214.902344 C 82.675781 217.367188 84.730469 219.761719 86.867188 222.085938 C 89.003906 224.410156 91.214844 226.660156 93.503906 228.835938 C 95.792969 231.011719 98.152344 233.109375 100.578125 235.125 C 103.007812 237.140625 105.503906 239.074219 108.066406 240.921875 C 110.625 242.769531 113.242188 244.527344 115.921875 246.199219 C 118.601562 247.867188 121.335938 249.445312 124.121094 250.933594 C 126.90625 252.417969 129.738281 253.808594 132.617188 255.105469 C 135.496094 256.402344 138.414062 257.597656 141.375 258.695312 C 144.335938 259.792969 147.332031 260.789062 150.359375 261.683594 C 153.386719 262.582031 156.4375 263.375 159.519531 264.0625 C 162.601562 264.753906 165.703125 265.335938 168.824219 265.816406 C 171.941406 266.296875 175.078125 266.671875 178.222656 266.941406 C 181.367188 267.207031 184.519531 267.371094 187.675781 267.425781 Z M 187.675781 122.425781 C 190.425781 122.476562 193.167969 122.617188 195.910156 122.851562 C 198.648438 123.082031 201.378906 123.402344 204.097656 123.8125 C 206.816406 124.226562 209.519531 124.726562 212.207031 125.3125 C 214.890625 125.902344 217.554688 126.578125 220.195312 127.34375 C 222.839844 128.109375 225.453125 128.957031 228.039062 129.894531 C 230.625 130.832031 233.175781 131.851562 235.695312 132.953125 C 238.210938 134.058594 240.691406 135.242188 243.132812 136.511719 C 245.574219 137.777344 247.96875 139.125 250.320312 140.546875 C 252.671875 141.972656 254.976562 143.472656 257.230469 145.050781 C 259.480469 146.625 261.679688 148.273438 263.824219 149.996094 C 265.96875 151.714844 268.058594 153.503906 270.082031 155.363281 C 272.109375 157.222656 274.074219 159.144531 275.976562 161.132812 C 277.875 163.117188 279.710938 165.164062 281.476562 167.273438 C 283.242188 169.382812 284.9375 171.542969 286.558594 173.765625 C 288.183594 175.984375 289.734375 178.253906 291.207031 180.574219 C 292.679688 182.894531 294.078125 185.261719 295.394531 187.675781 C 294.078125 190.089844 292.679688 192.457031 291.207031 194.777344 C 289.734375 197.097656 288.183594 199.367188 286.558594 201.585938 C 284.9375 203.808594 283.242188 205.96875 281.476562 208.078125 C 279.710938 210.1875 277.875 212.234375 275.976562 214.222656 C 274.074219 216.207031 272.109375 218.128906 270.082031 219.988281 C 268.054688 221.847656 265.96875 223.636719 263.824219 225.355469 C 261.679688 227.078125 259.480469 228.726562 257.230469 230.300781 C 254.976562 231.878906 252.671875 233.378906 250.320312 234.804688 C 247.96875 236.226562 245.574219 237.574219 243.132812 238.839844 C 240.691406 240.109375 238.210938 241.292969 235.695312 242.398438 C 233.175781 243.5 230.625 244.519531 228.039062 245.457031 C 225.453125 246.394531 222.839844 247.242188 220.195312 248.007812 C 217.554688 248.773438 214.890625 249.449219 212.207031 250.039062 C 209.519531 250.625 206.816406 251.125 204.097656 251.539062 C 201.378906 251.949219 198.648438 252.269531 195.910156 252.5 C 193.167969 252.734375 190.425781 252.875 187.675781 252.925781 C 184.925781 252.875 182.183594 252.734375 179.441406 252.5 C 176.703125 252.269531 173.972656 251.949219 171.253906 251.539062 C 168.535156 251.125 165.832031 250.625 163.144531 250.039062 C 160.460938 249.449219 157.796875 248.773438 155.15625 248.007812 C 152.511719 247.242188 149.898438 246.394531 147.3125 245.457031 C 144.730469 244.519531 142.175781 243.5 139.65625 242.398438 C 137.140625 241.292969 134.660156 240.109375 132.21875 238.839844 C 129.777344 237.574219 127.382812 236.226562 125.03125 234.804688 C 122.679688 233.378906 120.375 231.878906 118.125 230.300781 C 115.871094 228.726562 113.671875 227.078125 111.527344 225.355469 C 109.382812 223.636719 107.296875 221.847656 105.269531 219.988281 C 103.242188 218.128906 101.277344 216.207031 99.375 214.222656 C 97.476562 212.234375 95.640625 210.1875 93.875 208.078125 C 92.109375 205.96875 90.414062 203.808594 88.792969 201.585938 C 87.167969 199.367188 85.621094 197.097656 84.144531 194.777344 C 82.671875 192.457031 81.273438 190.089844 79.957031 187.675781 C 81.273438 185.261719 82.671875 182.894531 84.144531 180.574219 C 85.621094 178.253906 87.167969 175.984375 88.792969 173.765625 C 90.414062 171.542969 92.109375 169.382812 93.875 167.273438 C 95.640625 165.164062 97.476562 163.117188 99.375 161.132812 C 101.277344 159.144531 103.242188 157.222656 105.269531 155.363281 C 107.296875 153.503906 109.382812 151.714844 111.527344 149.996094 C 113.671875 148.273438 115.871094 146.625 118.125 145.050781 C 120.375 143.472656 122.679688 141.972656 125.03125 140.546875 C 127.382812 139.125 129.777344 137.777344 132.21875 136.511719 C 134.660156 135.242188 137.140625 134.058594 139.65625 132.953125 C 142.175781 131.851562 144.730469 130.832031 147.3125 129.894531 C 149.898438 128.957031 152.511719 128.109375 155.15625 127.34375 C 157.796875 126.578125 160.460938 125.902344 163.144531 125.3125 C 165.832031 124.726562 168.535156 124.226562 171.253906 123.8125 C 173.972656 123.402344 176.703125 123.082031 179.441406 122.851562 C 182.183594 122.617188 184.925781 122.476562 187.675781 122.425781 Z M 187.675781 122.425781 " fill-opacity="1" fill-rule="nonzero"/><path fill="#000000" d="M 187.675781 223.925781 C 189.003906 223.9375 190.328125 223.875 191.648438 223.742188 C 192.96875 223.609375 194.28125 223.402344 195.578125 223.125 C 196.878906 222.847656 198.15625 222.496094 199.417969 222.078125 C 200.675781 221.660156 201.910156 221.175781 203.117188 220.621094 C 204.324219 220.066406 205.496094 219.445312 206.636719 218.765625 C 207.773438 218.082031 208.871094 217.335938 209.929688 216.535156 C 210.988281 215.730469 211.996094 214.871094 212.960938 213.957031 C 213.921875 213.042969 214.832031 212.078125 215.6875 211.0625 C 216.546875 210.046875 217.34375 208.988281 218.085938 207.886719 C 218.824219 206.785156 219.503906 205.644531 220.117188 204.46875 C 220.734375 203.289062 221.28125 202.082031 221.765625 200.847656 C 222.246094 199.609375 222.660156 198.347656 223.003906 197.066406 C 223.347656 195.785156 223.621094 194.484375 223.820312 193.171875 C 224.023438 191.859375 224.152344 190.542969 224.207031 189.214844 C 224.265625 187.886719 224.246094 186.5625 224.15625 185.238281 C 224.070312 183.910156 223.90625 182.597656 223.671875 181.289062 C 223.4375 179.980469 223.132812 178.691406 222.757812 177.417969 C 222.382812 176.144531 221.9375 174.894531 221.425781 173.667969 C 220.910156 172.445312 220.332031 171.253906 219.6875 170.089844 C 219.042969 168.929688 218.339844 167.808594 217.570312 166.722656 C 216.804688 165.640625 215.980469 164.601562 215.097656 163.609375 C 214.214844 162.617188 213.28125 161.675781 212.296875 160.785156 C 211.3125 159.894531 210.28125 159.058594 209.203125 158.28125 C 208.125 157.503906 207.011719 156.789062 205.855469 156.136719 C 204.699219 155.480469 203.511719 154.890625 202.292969 154.367188 C 201.070312 153.84375 199.824219 153.386719 198.554688 153 C 197.285156 152.613281 195.996094 152.296875 194.691406 152.050781 C 193.386719 151.804688 192.074219 151.632812 190.75 151.53125 C 189.425781 151.429688 188.097656 151.402344 186.773438 151.449219 C 185.445312 151.492188 184.125 151.609375 182.808594 151.800781 C 181.496094 151.988281 180.195312 152.25 178.910156 152.582031 C 177.625 152.914062 176.359375 153.316406 175.117188 153.789062 C 175.613281 154.09375 176.09375 154.429688 176.550781 154.789062 C 177.011719 155.148438 177.445312 155.53125 177.863281 155.941406 C 178.277344 156.351562 178.667969 156.78125 179.035156 157.234375 C 179.402344 157.6875 179.742188 158.160156 180.054688 158.652344 C 180.367188 159.144531 180.652344 159.652344 180.910156 160.175781 C 181.164062 160.699219 181.390625 161.238281 181.585938 161.785156 C 181.78125 162.335938 181.945312 162.894531 182.078125 163.460938 C 182.210938 164.03125 182.3125 164.605469 182.378906 165.183594 C 182.445312 165.761719 182.480469 166.34375 182.484375 166.925781 C 182.484375 167.507812 182.453125 168.089844 182.390625 168.667969 C 182.328125 169.25 182.230469 169.824219 182.105469 170.390625 C 181.976562 170.960938 181.816406 171.519531 181.625 172.070312 C 181.433594 172.621094 181.210938 173.160156 180.960938 173.6875 C 180.707031 174.210938 180.425781 174.722656 180.117188 175.214844 C 179.808594 175.710938 179.46875 176.183594 179.105469 176.640625 C 178.742188 177.097656 178.355469 177.53125 177.945312 177.945312 C 177.53125 178.355469 177.097656 178.742188 176.640625 179.105469 C 176.183594 179.46875 175.710938 179.808594 175.214844 180.117188 C 174.722656 180.425781 174.210938 180.707031 173.6875 180.960938 C 173.160156 181.210938 172.621094 181.433594 172.070312 181.625 C 171.519531 181.816406 170.960938 181.976562 170.390625 182.105469 C 169.824219 182.230469 169.25 182.328125 168.667969 182.390625 C 168.089844 182.453125 167.507812 182.484375 166.925781 182.484375 C 166.34375 182.480469 165.761719 182.445312 165.183594 182.378906 C 164.605469 182.3125 164.03125 182.210938 163.460938 182.078125 C 162.894531 181.945312 162.335938 181.78125 161.785156 181.585938 C 161.238281 181.390625 160.699219 181.164062 160.175781 180.910156 C 159.652344 180.652344 159.144531 180.367188 158.652344 180.054688 C 158.160156 179.742188 157.6875 179.402344 157.234375 179.035156 C 156.78125 178.667969 156.351562 178.277344 155.941406 177.863281 C 155.53125 177.445312 155.148438 177.011719 154.789062 176.550781 C 154.429688 176.09375 154.09375 175.613281 153.789062 175.117188 C 153.53125 175.800781 153.289062 176.488281 153.074219 177.183594 C 152.855469 177.878906 152.65625 178.578125 152.480469 179.285156 C 152.304688 179.992188 152.152344 180.703125 152.019531 181.421875 C 151.886719 182.136719 151.777344 182.855469 151.6875 183.578125 C 151.601562 184.300781 151.535156 185.027344 151.488281 185.753906 C 151.445312 186.480469 151.421875 187.210938 151.421875 187.9375 C 151.421875 188.667969 151.445312 189.394531 151.488281 190.121094 C 151.53125 190.847656 151.597656 191.574219 151.6875 192.296875 C 151.773438 193.019531 151.882812 193.738281 152.015625 194.457031 C 152.148438 195.171875 152.300781 195.882812 152.476562 196.589844 C 152.648438 197.296875 152.847656 198 153.0625 198.695312 C 153.28125 199.390625 153.519531 200.078125 153.777344 200.757812 C 154.039062 201.441406 154.316406 202.113281 154.617188 202.777344 C 154.917969 203.4375 155.238281 204.09375 155.578125 204.738281 C 155.917969 205.382812 156.277344 206.015625 156.65625 206.636719 C 157.035156 207.261719 157.429688 207.871094 157.847656 208.46875 C 158.261719 209.066406 158.695312 209.652344 159.144531 210.226562 C 159.597656 210.796875 160.066406 211.355469 160.550781 211.898438 C 161.035156 212.441406 161.535156 212.96875 162.054688 213.484375 C 162.570312 213.996094 163.101562 214.492188 163.648438 214.976562 C 164.195312 215.457031 164.757812 215.917969 165.332031 216.367188 C 165.90625 216.8125 166.496094 217.242188 167.097656 217.652344 C 167.699219 218.0625 168.3125 218.457031 168.9375 218.832031 C 169.5625 219.203125 170.199219 219.558594 170.847656 219.894531 C 171.492188 220.230469 172.148438 220.542969 172.816406 220.839844 C 173.480469 221.132812 174.15625 221.410156 174.839844 221.664062 C 175.519531 221.917969 176.210938 222.152344 176.90625 222.363281 C 177.605469 222.574219 178.304688 222.765625 179.015625 222.9375 C 179.722656 223.105469 180.4375 223.253906 181.152344 223.382812 C 181.871094 223.507812 182.589844 223.613281 183.316406 223.695312 C 184.039062 223.777344 184.765625 223.839844 185.492188 223.875 C 186.21875 223.914062 186.949219 223.929688 187.675781 223.925781 Z M 187.675781 223.925781 " fill-opacity="1" fill-rule="nonzero"/></svg>